#!OML:ASF Y:\EmotionMaleHayes\Project 1\Capture day 1\Session 1\Male1.ASF
:FULLY-SPECIFIED
:DEGREES
337
root 26.7192 16.9491 0.155695 650.261 86.9641 653.331
lowerback 11.8544 -0.115324 1.62876
upperback 3.82752 0.338153 3.29604
thorax -2.6549 0.23977 2.46248
lowerneck -22.5457 3.03194 5.88784
upperneck 25.4319 3.44211 -3.58932
head 12.3301 1.70193 -1.74525
rclavicle -3.97569e-016 -1.35174e-014
rhumerus -36.6628 -15.0176 -72.163
rradius 45
rwrist -24.1006
rhand -18.2058 -29.6697
rfingers 7.12502
rthumb 8.07166 -59.4956
lclavicle -3.97569e-016 -1.35174e-014
lhumerus -34.0509 -24.0341 96.3144
lradius 37.4686
lwrist -4.35675
lhand -14.1488 -14.458
lfingers 7.12502
lthumb 11.9856 15.1788
rfemur -6.63303 -0.073603 21.557
rtibia 21.5075
rfoot -14.7013 -1.55293
rtoes -3.24513
lfemur -4.95205 5.26284 -12.5172
ltibia 64.8767
lfoot -4.83331 -4.11262
ltoes -0.576133
338
root 26.9534 17.0266 0.153175 651.926 86.6975 655.072
lowerback 11.956 0.118803 2.01289
upperback 3.74543 0.692412 3.19544
thorax -2.80173 0.414524 2.09068
lowerneck -22.7347 2.91279 6.05087
upperneck 25.6568 3.24134 -3.68705
head 12.4503 1.61773 -1.84551
rclavicle 3.77691e-015 7.95139e-015
rhumerus -35.9882 -11.3967 -74.8095
rradius 45.9473
rwrist -24.0308
rhand -17.8203 -29.0786
rfingers 7.12502
rthumb 8.44371 -58.8898
lclavicle 3.77691e-015 7.95139e-015
lhumerus -34.6893 -21.8955 95.9388
lradius 34.7239
lwrist -7.81205
lhand -12.6651 -14.2538
lfingers 7.12502
lthumb 13.416 15.2942
rfemur -4.78592 -0.31532 21.6936
rtibia 20.0675
rfoot -14.7697 -1.00574
rtoes -3.14509
lfemur -6.82622 5.53059 -12.4789
ltibia 64.4805
lfoot -5.25233 -4.49583
ltoes -2.30639
339
root 27.1913 17.0969 0.149409 653.2 86.2283 656.441
lowerback 11.9817 0.341402 2.56951
upperback 3.75264 1.05155 3.12993
thorax -2.80521 0.593446 1.65744
lowerneck -22.9536 2.84043 6.40255
upperneck 25.7672 3.06555 -3.91771
head 12.5384 1.54271 -2.0242
rclavicle -6.4605e-015 -2.94201e-014
rhumerus -35.046 -7.29895 -77.4005
rradius 46.7424
rwrist -23.2634
rhand -16.9709 -28.23
rfingers 7.12502
rthumb 9.26345 -58.0065
lclavicle -6.4605e-015 -2.94201e-014
lhumerus -35.1722 -19.5365 95.1816
lradius 32.1995
lwrist -11.6456
lhand -11.1493 -14.2223
lfingers 7.12502
lthumb 14.8767 15.2235
rfemur -2.92044 -0.428207 22.0602
rtibia 18.5488
rfoot -14.8472 -0.46692
rtoes -2.37258
lfemur -8.58703 5.8602 -12.1818
ltibia 63.8976
lfoot -5.62166 -4.75347
ltoes -2.88676
340
root 27.4285 17.1602 0.152222 655.768 85.6035 659.143
lowerback 12.0543 0.641143 3.16695
upperback 3.76494 1.52119 3.07815
thorax -2.82 0.827259 1.20008
lowerneck -23.0729 2.77413 6.69513
upperneck 25.7699 2.88143 -4.01923
head 12.5588 1.47539 -2.14456
rclavicle -6.65929e-015 -2.46493e-014
rhumerus -34.649 -2.88668 -79.8044
rradius 48.2188
rwrist -21.9879
rhand -15.4334 -27.7986
rfingers 7.12502
rthumb 10.7467 -57.5038
lclavicle -6.65929e-015 -2.46493e-014
lhumerus -35.7015 -17.2346 94.2058
lradius 29.9965
lwrist -15.4676
lhand -9.70794 -14.3514
lfingers 7.12502
lthumb 16.2649 14.9864
rfemur -1.05718 -0.191492 22.6115
rtibia 16.9269
rfoot -14.8457 -0.224925
rtoes -3.13415
lfemur -10.2326 6.37457 -11.6772
ltibia 63.1993
lfoot -5.86903 -4.74905
ltoes -1.7076
341
root 27.6612 17.2167 0.156776 658.14 85.0056 661.616
lowerback 12.2857 0.928779 3.6544
upperback 3.60204 1.97321 3.02153
thorax -3.09727 1.04452 0.796731
lowerneck -23.0063 2.65152 6.80963
upperneck 25.8662 2.65604 -3.95289
head 12.5704 1.40081 -2.17884
rclavicle -4.96962e-016 -2.78299e-015
rhumerus -34.6574 1.09547 -81.9218
rradius 50.0085
rwrist -19.7937
rhand -14.0265 -27.6292
rfingers 7.12502
rthumb 12.1036 -57.2592
lclavicle -4.96962e-016 -2.78299e-015
lhumerus -36.6462 -15.0072 93.1579
lradius 28.1775
lwrist -18.9585
lhand -8.34257 -14.5915
lfingers 7.12502
lthumb 17.5792 14.6338
rfemur 0.751871 0.0863232 23.1113
rtibia 15.298
rfoot -14.7984 0.0484464
rtoes -3.37713
lfemur -11.8595 6.85365 -11.1957
ltibia 62.3126
lfoot -6.05118 -4.53996
ltoes -0.0492167
342
root 27.8964 17.265 0.158165 659.072 84.42 662.595
lowerback 12.4774 1.17064 4.21156
upperback 3.33822 2.37412 2.9452
thorax -3.44722 1.22965 0.337856
lowerneck -22.8802 2.44692 6.79159
upperneck 26.1027 2.34199 -3.76966
head 12.6165 1.29488 -2.16268
rclavicle -1.56046e-014 -4.09496e-014
rhumerus -34.9139 5.14675 -83.9333
rradius 51.8672
rwrist -17.4003
rhand -13.3821 -26.7875
rfingers 7.12502
rthumb 12.7249 -56.3798
lclavicle -1.56046e-014 -4.09496e-014
lhumerus -37.9835 -13.3142 92.1534
lradius 26.7515
lwrist -21.909
lhand -7.29262 -15.0612
lfingers 7.12502
lthumb 18.5894 14.0706
rfemur 2.51315 0.0530131 23.564
rtibia 13.8105
rfoot -14.6682 0.632577
rtoes -2.2745
lfemur -13.4211 7.24617 -10.7088
ltibia 61.1442
lfoot -6.386 -4.13541
ltoes -0.501679
343
root 28.1371 17.3009 0.161698 658.42 83.5962 662.117
lowerback 12.5915 1.39704 5.07558
upperback 3.26759 2.7943 2.92404
thorax -3.5309 1.43094 -0.233969
lowerneck -23.1086 2.23766 6.66185
upperneck 26.4321 2.01069 -3.51495
head 12.769 1.17698 -2.1041
rclavicle -8.24956e-015 -7.95139e-016
rhumerus -35.0784 9.12984 -85.7385
rradius 54.0477
rwrist -14.8982
rhand -13.2393 -25.358
rfingers 7.12502
rthumb 12.8625 -54.9417
lclavicle -8.24956e-015 -7.95139e-016
lhumerus -39.2122 -12.3284 91.2091
lradius 25.6406
lwrist -24.2322
lhand -6.4177 -15.5358
lfingers 7.12502
lthumb 19.4308 13.5133
rfemur 4.40365 -0.0370079 24.3311
rtibia 12.3224
rfoot -14.4546 1.19286
rtoes -2.22641
lfemur -14.7311 7.63685 -9.82695
ltibia 59.7495
lfoot -6.93562 -3.59257
ltoes -2.04967
344
root 28.3866 17.3223 0.160319 658.328 82.9988 662.2
lowerback 12.4976 1.58248 5.75491
upperback 3.3419 3.11342 2.84921
thorax -3.34764 1.59214 -0.731829
lowerneck -23.1361 2.18963 7.05395
upperneck 26.283 1.93991 -4.02123
head 12.7195 1.11195 -2.37757
rclavicle -2.16675e-014 7.95139e-015
rhumerus -35.1793 12.8795 -87.3097
rradius 56.4912
rwrist -12.1458
rhand -13.2507 -24.0172
rfingers 7.12502
rthumb 12.8515 -53.6016
lclavicle -2.16675e-014 7.95139e-015
lhumerus -40.3929 -11.7514 90.3807
lradius 24.8712
lwrist -25.7519
lhand -5.41295 -15.822
lfingers 7.12502
lthumb 20.3966 13.1268
rfemur 6.30048 -0.482114 24.6699
rtibia 10.8036
rfoot -14.2231 1.99662
rtoes -3.32639
lfemur -15.8979 7.88354 -9.26322
ltibia 58.1598
lfoot -7.55289 -2.84923
ltoes -2.74956
345
root 28.6367 17.3315 0.151061 660.429 82.798 664.244
lowerback 12.1934 1.82117 6.02282
upperback 3.32109 3.42216 2.65193
thorax -3.15796 1.74565 -1.11706
lowerneck -23.3574 2.0676 6.94704
upperneck 26.3246 1.75026 -3.90452
head 12.7653 1.03165 -2.34868
rclavicle 2.28602e-015 3.57812e-015
rhumerus -35.4562 16.3459 -88.6672
rradius 59.3322
rwrist -9.07803
rhand -12.9147 -24.2191
rfingers 7.12502
rthumb 13.1754 -53.7828
lclavicle 2.28602e-015 3.57812e-015
lhumerus -41.8505 -11.6121 89.8357
lradius 24.4609
lwrist -26.4366
lhand -4.20823 -16.0314
lfingers 7.12502
lthumb 21.554 12.7892
rfemur 7.87937 -1.41639 24.2084
rtibia 9.54262
rfoot -14.1066 3.32842
rtoes -4.36917
lfemur -17.1817 8.09372 -9.37158
ltibia 56.3869
lfoot -8.12432 -1.79859
ltoes -2.36782
346
root 28.8729 17.3341 0.153864 662.574 82.2926 666.309
lowerback 12.0661 2.16174 6.39225
upperback 3.22214 3.89999 2.52826
thorax -3.12853 1.977 -1.51171
lowerneck -23.4335 1.85034 6.88116
upperneck 26.4736 1.46422 -3.8968
head 12.8203 0.904173 -2.38753
rclavicle -3.84151e-014 -2.78299e-015
rhumerus -35.7305 19.4971 -89.763
rradius 62.23
rwrist -5.94608
rhand -12.6849 -23.506
rfingers 7.12502
rthumb 13.3969 -53.0552
lclavicle -3.84151e-014 -2.78299e-015
lhumerus -43.4628 -11.8393 89.4452
lradius 24.3084
lwrist -26.6067
lhand -4.44952 -16.5768
lfingers 7.12502
lthumb 21.3222 12.2702
rfemur 9.27753 -1.81902 24.2159
rtibia 8.52954
rfoot -14.1494 4.26128
rtoes -4.14605
lfemur -18.4926 8.59 -9.01491
ltibia 54.5859
lfoot -8.63428 -0.567335
ltoes -2.05553
347
root 29.1078 17.3286 0.164703 662.539 81.3447 666.341
lowerback 12.0405 2.44669 7.15354
upperback 3.19913 4.37141 2.557
thorax -3.04946 2.21055 -1.96331
lowerneck -23.1974 1.66265 6.72296
upperneck 26.3298 1.19137 -3.63718
head 12.694 0.803876 -2.30423
rclavicle -4.62174e-015 1.55052e-014
rhumerus -35.8489 22.5825 -90.663
rradius 65.0971
rwrist -3.36146
rhand -12.9641 -22.1545
rfingers 7.12502
rthumb 13.1278 -51.7212
lclavicle -4.62174e-015 1.55052e-014
lhumerus -45.1124 -12.3662 89.2275
lradius 24.3379
lwrist -25.927
lhand -3.62413 -16.6408
lfingers 7.12502
lthumb 22.1149 12.1145
rfemur 10.7929 -1.8249 24.9888
rtibia 7.50557
rfoot -14.1345 4.78725
rtoes -2.24337
lfemur -19.5436 9.23467 -7.87191
ltibia 52.6328
lfoot -9.07361 0.69053
ltoes -2.15969
